<?xml version="1.0" encoding="UTF-8"?>
<svg xmlns="http://www.w3.org/2000/svg" viewBox="0 0 512 512" width="512" height="512">
  <defs>
    <linearGradient id="bg" x1="0" y1="0" x2="1" y2="1">
      <stop offset="0" stop-color="#6C63FF"/>
      <stop offset="1" stop-color="#9D97FF"/>
    </linearGradient>
  </defs>
  <rect x="0" y="0" width="512" height="512" rx="96" ry="96" fill="url(#bg)"/>
  <!-- Feather icon (fa-feather-alt) in white, centered and scaled -->
  <g transform="translate(96,96) scale(0.625)" fill="#ffffff">
    <path d="M467.14 44.84c-62.55-62.48-161.67-64.78-225.17-7.01C101.59 150.61 101.46 212.87 240.13 351l22.62 22.62-22.62 22.62a32 32 0 0 0 0 45.25l22.62 22.62a32 32 0 0 0 45.25 0l22.62-22.62 22.62-22.62c147.45 147.45 209.71 147.32 322.56-4.19 57.78-63.5 55.48-162.62-7.06-225.16zm-9.68 177.6c-43.95 58.94-85.09 90.17-126.53 90.9-39.39.69-80.71-26.63-127.32-73.24l-16.07-16.07c-40.92-40.92-76.8-84.9-76.8-127.33 0-31.02 20.36-67.37 58.92-105.93 35.94-35.94 69.42-50.5 98.83-50.5 31.59 0 59.55 17.58 73.58 31.61C429.22 32.44 498.85 102 498.85 171.46c0 25.58-8.7 49.79-25.61 71.98z"/>
  </g>
</svg>
